<?xml version="1.0" encoding="utf-8"?>
<!-- Generator: Adobe Illustrator 15.1.0, SVG Export Plug-In . SVG Version: 6.00 Build 0)  -->
<!DOCTYPE svg PUBLIC "-//W3C//DTD SVG 1.1//EN" "http://www.w3.org/Graphics/SVG/1.1/DTD/svg11.dtd">
<svg version="1.1" id="Layer_1" xmlns="http://www.w3.org/2000/svg" xmlns:xlink="http://www.w3.org/1999/xlink" x="0px" y="0px"
	 width="22px" height="25.002px" viewBox="0 0 22 25.002" enable-background="new 0 0 22 25.002" xml:space="preserve">
<g>
	<g>
		<path fill-rule="evenodd" clip-rule="evenodd" fill="#FFFF99" d="M11,14c-6.667,0-11,2.334-11,5v1.002v1v3c0,0.553,0.447,1,1,1h16
			c0.552,0,1-0.447,1-1v-2c0-0.553-0.448-1-1-1c-0.553,0-1,0.447-1,1v1H2v-2v-1V20c0-2,3-4,9-4s9,2,9,4v1.002v3c0,0.553,0.447,1,1,1
			s1-0.447,1-1v-3V19C22,16.334,17.666,14,11,14z M11,12c3.313,0,6-2.687,6-6s-2.687-6-6-6C7.686,0,5,2.687,5,6S7.686,12,11,12z
			 M11,2c2.209,0,4,1.791,4,4c0,2.208-1.791,4-4,4S7,8.208,7,6C7,3.791,8.791,2,11,2z"/>
	</g>
</g>
</svg>
