<?xml version="1.0" encoding="utf-8"?>
<!-- Generator: Adobe Illustrator 15.1.0, SVG Export Plug-In . SVG Version: 6.00 Build 0)  -->
<!DOCTYPE svg PUBLIC "-//W3C//DTD SVG 1.1//EN" "http://www.w3.org/Graphics/SVG/1.1/DTD/svg11.dtd">
<svg version="1.1" id="Layer_1" xmlns="http://www.w3.org/2000/svg" xmlns:xlink="http://www.w3.org/1999/xlink" x="0px" y="0px"
	 width="18px" height="18px" viewBox="0 0 18 18" enable-background="new 0 0 18 18" xml:space="preserve">
<g>
	<g>
		<path fill-rule="evenodd" clip-rule="evenodd" fill="#FFFFFF" d="M9,0C4.029,0,0,4.029,0,9s4.029,9,9,9s9-4.029,9-9S13.971,0,9,0z
			 M9,15.999c-3.866,0-7-3.134-7-7s3.134-7,7-7c1.646,0,3.155,0.572,4.351,1.522l-4.266,5.74L7.859,7.374
			C7.531,6.93,6.905,6.834,6.461,7.162c-0.445,0.327-0.54,0.953-0.213,1.398l1.965,3.025c0.141,0.19,0.341,0.303,0.553,0.359
			c0.021,0.006,0.04,0.017,0.061,0.021c0.068,0.014,0.136,0.009,0.205,0.008c0.069,0.001,0.137,0.006,0.205-0.008
			c0.021-0.005,0.039-0.016,0.06-0.021c0.213-0.057,0.413-0.169,0.554-0.359l4.893-6.584C15.533,6.136,16,7.512,16,8.999
			C16,12.865,12.865,15.999,9,15.999z"/>
	</g>
</g>
</svg>
