<?xml version="1.0" encoding="utf-8"?>
<!-- Generator: Adobe Illustrator 15.1.0, SVG Export Plug-In . SVG Version: 6.00 Build 0)  -->
<!DOCTYPE svg PUBLIC "-//W3C//DTD SVG 1.1//EN" "http://www.w3.org/Graphics/SVG/1.1/DTD/svg11.dtd">
<svg version="1.1" id="Layer_1" xmlns="http://www.w3.org/2000/svg" xmlns:xlink="http://www.w3.org/1999/xlink" x="0px" y="0px"
	 width="31.723px" height="32px" viewBox="0 0 31.723 32" enable-background="new 0 0 31.723 32" xml:space="preserve">
<g>
	<g>
		<path fill-rule="evenodd" clip-rule="evenodd" fill="#7F8C8D" d="M15.862,20c-2.209,0-4-1.791-4-4s1.791-4,4-4
			c1.172,0,2.216,0.513,2.947,1.315l2.646-1.512C20.178,10.104,18.151,9,15.862,9c-3.866,0-7,3.134-7,7s3.134,7,7,7
			c2.667,0,4.985-1.492,6.167-3.688l-2.854-1.07C18.455,19.303,17.24,20,15.862,20z M15.862,0C7.102,0,0,7.163,0,16
			c0,8.836,7.102,16,15.862,16c8.76,0,15.861-7.164,15.861-16C31.723,7.163,24.622,0,15.862,0z M15.862,29c-7.18,0-13-5.82-13-13
			s5.82-13,13-13s13,5.82,13,13S23.042,29,15.862,29z"/>
	</g>
</g>
</svg>
