<?xml version="1.0" encoding="utf-8"?>
<!-- Generator: Adobe Illustrator 15.1.0, SVG Export Plug-In . SVG Version: 6.00 Build 0)  -->
<!DOCTYPE svg PUBLIC "-//W3C//DTD SVG 1.1//EN" "http://www.w3.org/Graphics/SVG/1.1/DTD/svg11.dtd">
<svg version="1.1" id="Layer_1" xmlns="http://www.w3.org/2000/svg" xmlns:xlink="http://www.w3.org/1999/xlink" x="0px" y="0px"
	 width="16px" height="16px" viewBox="0 0 16 16" enable-background="new 0 0 16 16" xml:space="preserve">
<g>
	<g>
		<path fill-rule="evenodd" clip-rule="evenodd" fill="#FFFF99" d="M5,6h2c0.553,0,1-0.447,1-1S7.553,4,7,4H5C4.448,4,4,4.447,4,5
			S4.448,6,5,6z M11,0H1C0.448,0,0,0.448,0,1v14c0,0.553,0.448,1,1,1h10c0.553,0,1-0.447,1-1V1C12,0.448,11.553,0,11,0z M10,14H2V2
			h8V14z M15,4c-0.553,0-1,0.447-1,1v10c0,0.553,0.447,1,1,1s1-0.447,1-1V5C16,4.447,15.553,4,15,4z M5,10h2c0.553,0,1-0.447,1-1
			S7.553,8,7,8H5C4.448,8,4,8.447,4,9S4.448,10,5,10z"/>
	</g>
</g>
</svg>
