<?xml version="1.0" encoding="utf-8"?>
<!-- Generator: Adobe Illustrator 15.1.0, SVG Export Plug-In . SVG Version: 6.00 Build 0)  -->
<!DOCTYPE svg PUBLIC "-//W3C//DTD SVG 1.1//EN" "http://www.w3.org/Graphics/SVG/1.1/DTD/svg11.dtd">
<svg version="1.1" id="Layer_1" xmlns="http://www.w3.org/2000/svg" xmlns:xlink="http://www.w3.org/1999/xlink" x="0px" y="0px"
	 width="26px" height="6px" viewBox="0 0 26 6" enable-background="new 0 0 26 6" xml:space="preserve">
<g>
	<g>
		<path fill-rule="evenodd" clip-rule="evenodd" fill="#333333" d="M23,0c-1.657,0-3,1.344-3,3.001C20,4.657,21.343,6,23,6
			c1.656,0,3-1.343,3-2.999C26,1.344,24.656,0,23,0z M13,0c-1.657,0-3,1.344-3,3.001C10,4.657,11.343,6,13,6
			c1.656,0,3-1.343,3-2.999C16,1.344,14.656,0,13,0z M3,0C1.343,0,0,1.344,0,3.001C0,4.657,1.343,6,3,6s3-1.343,3-2.999
			C6,1.344,4.657,0,3,0z"/>
	</g>
</g>
</svg>
