<?xml version="1.0" encoding="utf-8"?>
<!-- Generator: Adobe Illustrator 15.1.0, SVG Export Plug-In . SVG Version: 6.00 Build 0)  -->
<!DOCTYPE svg PUBLIC "-//W3C//DTD SVG 1.1//EN" "http://www.w3.org/Graphics/SVG/1.1/DTD/svg11.dtd">
<svg version="1.1" id="Layer_1" xmlns="http://www.w3.org/2000/svg" xmlns:xlink="http://www.w3.org/1999/xlink" x="0px" y="0px"
	 width="16px" height="16px" viewBox="0 0 16 16" enable-background="new 0 0 16 16" xml:space="preserve">
<g>
	<g>
		<path fill-rule="evenodd" clip-rule="evenodd" fill="#FFFF99" d="M15,4H5C4.448,4,4,4.447,4,5s0.448,1,1,1h9v8H2V2h4h4h3
			c0.553,0,1-0.448,1-1s-0.447-1-1-1h-3H6H1C0.448,0,0,0.448,0,1v14c0,0.553,0.448,1,1,1h14c0.553,0,1-0.447,1-1v-1V5
			C16,4.447,15.553,4,15,4z M12,10c0-0.553-0.447-1-1-1s-1,0.447-1,1s0.447,1,1,1S12,10.553,12,10z"/>
	</g>
</g>
</svg>
