<?xml version="1.0" encoding="utf-8"?>
<!-- Generator: Adobe Illustrator 15.1.0, SVG Export Plug-In . SVG Version: 6.00 Build 0)  -->
<!DOCTYPE svg PUBLIC "-//W3C//DTD SVG 1.1//EN" "http://www.w3.org/Graphics/SVG/1.1/DTD/svg11.dtd">
<svg version="1.1" id="Layer_1" xmlns="http://www.w3.org/2000/svg" xmlns:xlink="http://www.w3.org/1999/xlink" x="0px" y="0px"
	 width="11px" height="15px" viewBox="0 0 11 15" enable-background="new 0 0 11 15" xml:space="preserve">
<g>
	<g>
		<path fill-rule="evenodd" clip-rule="evenodd" fill="#3498DB" d="M9.929,5.239C9.973,5,10,4.753,10,4.5C10,2.015,7.985,0,5.5,0
			S1,2.015,1,4.5C1,4.753,1.027,5,1.071,5.239C0.437,5.574,0,6.233,0,7v3h0.025c0.253,2.803,2.605,5,5.475,5
			c2.868,0,5.222-2.197,5.475-5H11V7C11,6.233,10.563,5.574,9.929,5.239z M6,10.909V11.5C6,11.776,5.775,12,5.5,12
			C5.224,12,5,11.776,5,11.5v-0.592C4.418,10.702,4,10.153,4,9.5C4,8.672,4.671,8,5.5,8C6.328,8,7,8.672,7,9.5
			C7,10.153,6.581,10.702,6,10.909z M7.99,4.601c-0.012,0.28-0.078,0.545-0.174,0.795C7.6,5.555,7.437,5.768,7.301,6H3.699
			C3.563,5.768,3.4,5.555,3.184,5.396C3.088,5.146,3.021,4.881,3.01,4.601C3.009,4.567,3,4.535,3,4.5C3,3.12,4.119,2,5.5,2
			S8,3.12,8,4.5C8,4.535,7.991,4.567,7.99,4.601z"/>
	</g>
</g>
</svg>
