<?xml version="1.0" encoding="utf-8"?>
<!-- Generator: Adobe Illustrator 15.1.0, SVG Export Plug-In . SVG Version: 6.00 Build 0)  -->
<!DOCTYPE svg PUBLIC "-//W3C//DTD SVG 1.1//EN" "http://www.w3.org/Graphics/SVG/1.1/DTD/svg11.dtd">
<svg version="1.1" id="Layer_1" xmlns="http://www.w3.org/2000/svg" xmlns:xlink="http://www.w3.org/1999/xlink" x="0px" y="0px"
	 width="284.919px" height="116.199px" viewBox="0 0 284.919 116.199" enable-background="new 0 0 284.919 116.199"
	 xml:space="preserve">
<g>
	<g>
		<path fill-rule="evenodd" clip-rule="evenodd" fill="#065CA9" d="M56.89,39.999h5.396V21.113h8.446v18.886h5.395V17.008H56.89
			V39.999z M98.884,17.008h-6.687l-5.043,9.032h-1.76v-9.032h-5.396v22.991h5.396v-9.267h2.463l5.162,9.267h6.452l-7.742-12.551
			L98.884,17.008z M109.088,39.999h5.396V21.113h8.446v18.886h5.396V17.008h-19.237V39.999z M141.228,22.521
			c-0.821,0-1.525,0.234-2.229,0.586c-0.704,0.353-1.291,0.938-1.76,1.643l-0.234-1.877h-5.044v24.046l5.396-0.82v-7.624
			c0.469,0.586,1.056,1.055,1.642,1.406c0.704,0.353,1.408,0.47,2.229,0.47c2.111,0,3.754-0.821,4.927-2.346
			c1.172-1.524,1.759-3.636,1.759-6.217v-0.352c0-2.699-0.587-4.811-1.759-6.452C144.982,23.343,143.339,22.521,141.228,22.521z
			 M142.636,31.788c0,1.408-0.235,2.463-0.586,3.284s-1.056,1.173-1.994,1.173c-0.586,0-1.056,0-1.525-0.234
			c-0.469-0.235-0.821-0.469-1.056-0.821v-7.155c0.234-0.352,0.469-0.703,0.938-0.938c0.469-0.234,0.938-0.352,1.525-0.352
			c0.938,0,1.525,0.469,1.994,1.29c0.352,0.938,0.586,2.111,0.586,3.52h0.117V31.788z M156.125,32.257h-0.116v-9.384h-5.279v17.126
			h5.279l4.691-9.384h0.117v9.384h5.278V22.873h-5.278L156.125,32.257z M179.585,29.559h-4.691v-6.686h-5.396v17.126h5.396v-6.335
			h4.691v6.335h5.278V22.873h-5.278V29.559z M186.975,26.979h5.278v13.021h5.396V26.979h4.574l0.821-4.105h-16.07V26.979z
			 M205.743,39.999h3.87v-19.94h10.323v19.94h3.871V17.008h-18.064V39.999z M236.358,22.521c-1.057,0-1.878,0.117-2.699,0.586
			c-0.82,0.47-1.406,1.057-1.992,1.877l-0.354-2.111h-3.284v24.281l3.87-0.704v-7.976c0.471,0.703,1.174,1.173,1.878,1.524
			c0.703,0.352,1.642,0.469,2.581,0.469c2.111,0,3.752-0.82,4.926-2.347c1.173-1.641,1.76-3.636,1.76-6.099v-0.469
			c0-2.698-0.587-4.928-1.76-6.569C240.11,23.343,238.47,22.521,236.358,22.521z M239.29,32.022c0,1.525-0.234,2.815-0.938,3.753
			c-0.587,0.939-1.642,1.408-2.933,1.408c-0.82,0-1.525-0.117-2.111-0.469c-0.469-0.353-0.938-0.821-1.289-1.408v-7.742
			c0.234-0.586,0.703-1.055,1.289-1.407c0.47-0.352,1.173-0.469,1.994-0.469c1.29,0,2.229,0.586,2.933,1.643
			c0.587,1.173,0.938,2.58,0.938,4.339h0.117V32.022z M253.366,22.521c-2.463,0-4.34,0.821-5.748,2.463s-2.111,3.753-2.111,6.334
			v0.352c0,2.581,0.703,4.692,2.111,6.335s3.285,2.463,5.748,2.463s4.34-0.82,5.747-2.463c1.408-1.643,2.111-3.754,2.111-6.335
			v-0.352c0-2.581-0.703-4.692-2.111-6.334C257.706,23.343,255.829,22.521,253.366,22.521z M257.472,31.67
			c0,1.643-0.353,3.051-1.056,4.105c-0.703,1.057-1.76,1.526-3.05,1.526c-1.407,0-2.346-0.47-3.05-1.526
			c-0.587-1.055-0.938-2.463-0.938-4.105v-0.352c0-1.524,0.234-2.933,0.938-3.987c0.704-1.057,1.759-1.643,3.05-1.643
			c1.407,0,2.347,0.586,3.05,1.643c0.703,1.055,1.056,2.346,1.056,3.987V31.67z M283.278,25.102
			c-1.174-1.642-2.699-2.463-4.692-2.463c-0.47,0-0.939,0-1.291,0.117s-0.703,0.234-1.056,0.352v-7.624l-3.871,0.703v6.804
			l-1.055-0.352c-0.352-0.117-0.822-0.117-1.174-0.117c-2.11,0-3.637,0.821-4.691,2.463c-1.057,1.76-1.643,3.988-1.643,6.686h0.117
			v0.47c0,2.581,0.587,4.575,1.643,6.1c1.056,1.525,2.58,2.347,4.574,2.347c0.469,0,0.822,0,1.174-0.118l1.055-0.352v7.038
			l3.871-0.704v-6.451c0.353,0.117,0.82,0.234,1.174,0.352c0.352,0.117,0.82,0.117,1.289,0.117c1.995,0,3.52-0.703,4.576-2.229
			c1.055-1.524,1.641-3.637,1.641-6.1v-0.352C284.919,28.973,284.333,26.744,283.278,25.102z M272.251,37.184
			c-0.234,0-0.352,0.118-0.586,0.118h-0.703c-1.174,0-1.994-0.47-2.581-1.408s-0.821-2.229-0.821-3.871h0.117v-0.234
			c0-1.76,0.234-3.167,0.82-4.34c0.471-1.056,1.408-1.643,2.581-1.643h0.587c0.234,0,0.352,0.117,0.586,0.117V37.184z
			 M280.813,31.67v0.235c0,1.643-0.234,2.933-0.82,3.87c-0.469,0.939-1.407,1.408-2.58,1.408h-0.705c-0.234,0-0.469,0-0.586-0.117
			V25.806c0.117,0,0.352-0.117,0.586-0.117h0.705c1.289,0,2.111,0.469,2.697,1.643c0.587,1.173,0.822,2.58,0.822,4.339H280.813z"/>
	</g>
</g>
<path fill="#DA2228" d="M15.484,12.551H5.865c-0.352,0-0.587,0.234-0.587,0.586v26.393c0,0.118,0.118,0.352,0.118,0.47
	c0.117,0.117,0.235,0.117,0.469,0.117h22.052c0.117,0,0.234-0.469,0.469-1.056c0.117-0.234,0.234-0.47,0.469-0.821l13.372-22.873
	c0.118-0.117,0.235-0.704,0.118-1.643c0-0.469-0.118-0.938-0.469-1.407l-4.692-6.921c0,0-0.235,0-0.352,0
	c-0.234,0-0.587,0-0.704,0.117L19.12,22.404l0,0c-0.117,0.117-0.235,0.469-0.235,0.82c0,0.353,0.118,0.704,0.352,0.939l7.742,6.803
	c3.285,2.933,1.29,7.154-5.748,7.624c2.346-2.229,2.815-3.284,1.055-4.691l-6.568-5.865c-1.29-1.173-1.994-2.933-2.111-4.691
	c-0.118-1.76,0.469-3.52,1.759-4.81l0,0L32.492,1.642l0,0c0.234-0.234,0.469-0.352,0.704-0.586C34.251,0.352,35.776,0,37.184,0
	c1.407,0.117,2.933,0.587,3.871,1.642c0.235,0.235,0.352,0.352,0.469,0.587l4.809,7.038c0.939,1.29,1.291,2.814,1.408,4.105
	c0.117,1.994-0.587,3.988-0.939,4.574L33.43,40.82c-0.117,0.117-0.234,0.352-0.352,0.703c-1.056,1.995-2.112,3.871-5.161,3.871
	H5.865c-1.642,0-3.05-0.703-4.105-1.76l0,0C0.704,42.58,0,41.054,0,39.529V13.137c0-3.284,2.698-5.864,5.865-5.864h15.131
	L15.484,12.551z"/>
<g>
	<g>
		<path fill="#666666" d="M35.687,87.411L35,88.769h-0.084l0.14-1.315v-5.334h-1.918v9.8h1.442l3.654-5.39l0.658-1.316h0.07
			l-0.112,1.274v5.432h1.918v-9.8H39.34L35.687,87.411z M48.665,86.109h-3.584v-3.99h-1.918v9.8h1.918v-4.102h3.584v4.102h1.917
			v-9.8h-1.917V86.109z M62.111,83.946c-0.285-0.332-0.618-0.579-1.001-0.742s-0.803-0.245-1.26-0.245
			c-0.14,0-0.325,0.007-0.553,0.021c-0.229,0.015-0.432,0.045-0.609,0.092v-1.232h-1.876v1.19c-0.112-0.028-0.257-0.047-0.434-0.057
			c-0.177-0.009-0.327-0.014-0.448-0.014c-0.514,0-0.98,0.094-1.4,0.28c-0.42,0.187-0.782,0.455-1.085,0.805s-0.537,0.774-0.7,1.274
			c-0.164,0.499-0.245,1.066-0.245,1.7c0,0.673,0.082,1.253,0.245,1.743c0.163,0.49,0.387,0.896,0.672,1.218
			c0.285,0.322,0.618,0.561,1.001,0.715c0.383,0.153,0.798,0.23,1.246,0.23c0.214,0,0.415-0.005,0.602-0.014
			c0.187-0.01,0.369-0.028,0.546-0.057v1.345h1.876v-1.372c0.14,0.037,0.296,0.063,0.469,0.077c0.172,0.014,0.333,0.021,0.483,0.021
			c0.466,0,0.903-0.086,1.309-0.259c0.406-0.173,0.763-0.43,1.071-0.771c0.308-0.34,0.551-0.763,0.728-1.267s0.261-1.087,0.252-1.75
			c0.009-0.644-0.065-1.211-0.224-1.701S62.396,84.277,62.111,83.946z M56.882,89.314c-0.103,0.038-0.231,0.059-0.385,0.063
			s-0.269,0.007-0.343,0.007c-0.523,0-0.943-0.206-1.26-0.619s-0.476-1-0.476-1.761c0-0.872,0.173-1.509,0.518-1.907
			c0.345-0.399,0.774-0.599,1.288-0.599c0.103,0,0.214,0.002,0.336,0.007c0.121,0.005,0.229,0.017,0.322,0.035V89.314z
			 M60.956,88.013c-0.093,0.309-0.224,0.565-0.392,0.771s-0.364,0.354-0.588,0.448c-0.224,0.093-0.467,0.145-0.728,0.153
			c-0.103-0.009-0.212-0.014-0.329-0.014s-0.217-0.01-0.301-0.028v-4.76c0.112-0.028,0.247-0.047,0.406-0.056
			c0.159-0.01,0.285-0.019,0.378-0.028c0.532,0.01,0.947,0.224,1.246,0.644s0.443,1.004,0.434,1.75
			C61.091,87.332,61.049,87.705,60.956,88.013z M71.89,83.323c-0.346-0.448-0.78-0.794-1.302-1.036
			c-0.523-0.243-1.134-0.364-1.834-0.364c-1.335,0-2.361,0.441-3.08,1.323s-1.078,2.14-1.078,3.772c0,0.766,0.084,1.461,0.252,2.086
			c0.168,0.626,0.422,1.162,0.763,1.61s0.772,0.794,1.295,1.036c0.522,0.242,1.139,0.364,1.848,0.364
			c1.325,0,2.35-0.441,3.073-1.323c0.723-0.882,1.085-2.14,1.085-3.773c0-0.765-0.084-1.46-0.252-2.086
			C72.492,84.308,72.235,83.771,71.89,83.323z M70.336,89.609c-0.374,0.531-0.901,0.798-1.582,0.798
			c-0.374,0-0.695-0.084-0.966-0.252c-0.271-0.168-0.493-0.401-0.665-0.7c-0.173-0.299-0.301-0.655-0.385-1.071
			c-0.084-0.415-0.126-0.87-0.126-1.365c0-1.166,0.187-2.022,0.56-2.568c0.373-0.546,0.9-0.819,1.582-0.819
			c0.392,0,0.723,0.087,0.994,0.259c0.271,0.173,0.49,0.413,0.658,0.722c0.168,0.308,0.292,0.667,0.371,1.077
			c0.079,0.411,0.119,0.854,0.119,1.33C70.896,88.214,70.709,89.077,70.336,89.609z M80.472,82.574
			c-0.392-0.238-0.833-0.396-1.323-0.477c-0.49-0.079-0.978-0.119-1.463-0.119c-0.467,0-0.936,0.021-1.407,0.063
			s-0.903,0.101-1.295,0.175v9.702h1.918v-3.374c0.046,0.01,0.124,0.019,0.231,0.028c0.107,0.009,0.217,0.016,0.329,0.021
			c0.112,0.005,0.219,0.007,0.322,0.007h0.224c0.485,0,0.954-0.061,1.407-0.182c0.452-0.121,0.856-0.317,1.211-0.588
			c0.354-0.271,0.639-0.618,0.854-1.043c0.214-0.425,0.322-0.945,0.322-1.562c0-0.681-0.124-1.233-0.371-1.658
			C81.184,83.144,80.864,82.812,80.472,82.574z M79.611,86.081c-0.117,0.224-0.273,0.398-0.469,0.525
			c-0.196,0.126-0.417,0.212-0.665,0.259c-0.248,0.047-0.497,0.069-0.749,0.069h-0.175c-0.079,0-0.161-0.002-0.245-0.007
			c-0.084-0.004-0.163-0.012-0.238-0.021c-0.075-0.01-0.131-0.019-0.168-0.028v-3.178c0.103-0.019,0.238-0.035,0.406-0.049
			c0.168-0.015,0.345-0.021,0.532-0.021c0.243,0,0.48,0.023,0.714,0.07s0.441,0.131,0.623,0.252s0.329,0.282,0.441,0.482
			c0.112,0.201,0.168,0.455,0.168,0.764C79.786,85.563,79.728,85.857,79.611,86.081z M91.294,91.919h1.918v-9.8h-1.736l-2.478,4.452
			l-0.42,1.147h-0.056l-0.462-1.12l-2.618-4.479h-1.75v9.8h1.82v-5.096l-0.28-1.933h0.07l0.616,1.555l2.198,3.668h0.616l2.086-3.654
			l0.602-1.568h0.084l-0.21,1.946V91.919z M98.279,82.049l-3.528,9.87h1.918l0.742-2.17h3.01l0.784,2.17h2.016l-3.528-9.87H98.279z
			 M97.901,88.209l0.714-2.17l0.294-1.554h0.07l0.294,1.54l0.728,2.184H97.901z M111.972,82.119h-1.918v8.092h-3.374v-8.092h-1.918
			v9.8h6.902l0.21,1.75h1.358v-3.458h-1.26V82.119z M117.558,87.411l-0.686,1.357h-0.084l0.14-1.315v-5.334h-1.918v9.8h1.442
			l3.654-5.39l0.658-1.316h0.07l-0.112,1.274v5.432h1.918v-9.8h-1.428L117.558,87.411z M132.019,83.323
			c-0.345-0.448-0.779-0.794-1.302-1.036c-0.523-0.243-1.134-0.364-1.834-0.364c-1.335,0-2.362,0.441-3.08,1.323
			c-0.719,0.882-1.078,2.14-1.078,3.772c0,0.766,0.084,1.461,0.252,2.086c0.168,0.626,0.422,1.162,0.763,1.61
			c0.34,0.448,0.772,0.794,1.295,1.036c0.522,0.242,1.139,0.364,1.848,0.364c1.325,0,2.35-0.441,3.073-1.323s1.085-2.14,1.085-3.773
			c0-0.765-0.084-1.46-0.252-2.086C132.621,84.308,132.364,83.771,132.019,83.323z M130.465,89.609
			c-0.374,0.531-0.901,0.798-1.582,0.798c-0.374,0-0.696-0.084-0.966-0.252s-0.492-0.401-0.665-0.7s-0.301-0.655-0.385-1.071
			c-0.084-0.415-0.126-0.87-0.126-1.365c0-1.166,0.187-2.022,0.56-2.568c0.373-0.546,0.9-0.819,1.582-0.819
			c0.392,0,0.723,0.087,0.994,0.259c0.271,0.173,0.49,0.413,0.658,0.722c0.168,0.308,0.292,0.667,0.371,1.077
			c0.079,0.411,0.119,0.854,0.119,1.33C131.025,88.214,130.838,89.077,130.465,89.609z M137.031,87.817h3.584v4.102h1.918v-9.8
			h-1.918v3.99h-3.584v-3.99h-1.918v9.8h1.918V87.817z M152.347,91.919v-9.8h-1.918v3.99h-3.584v-3.99h-1.918v9.8h1.918v-4.102
			h3.584v4.102H152.347z M158.843,82.049h-1.414l-3.527,9.87h1.918l0.741-2.17h3.011l0.783,2.17h2.016L158.843,82.049z
			 M157.051,88.209l0.714-2.17l0.294-1.554h0.07l0.294,1.54l0.729,2.184H157.051z M170.337,91.919v-9.702
			c-0.168-0.047-0.357-0.084-0.567-0.112c-0.21-0.027-0.425-0.051-0.644-0.069c-0.22-0.019-0.432-0.033-0.637-0.042
			c-0.206-0.01-0.388-0.015-0.547-0.015c-0.588,0-1.134,0.055-1.638,0.161c-0.504,0.107-0.938,0.285-1.302,0.532
			c-0.364,0.247-0.648,0.572-0.854,0.973c-0.206,0.401-0.309,0.896-0.309,1.484c0,0.42,0.056,0.796,0.168,1.127
			c0.111,0.331,0.266,0.618,0.462,0.861c0.196,0.242,0.425,0.44,0.687,0.595c0.261,0.154,0.541,0.269,0.84,0.343l-0.84,0.603
			l-2.017,3.262h2.226l2.045-3.612l1.008-0.266v3.878H170.337z M167.704,86.795c-0.261,0-0.504-0.028-0.728-0.084
			s-0.42-0.147-0.588-0.273s-0.299-0.289-0.392-0.489c-0.094-0.201-0.141-0.446-0.141-0.735c0-0.308,0.049-0.56,0.147-0.756
			c0.098-0.196,0.231-0.35,0.399-0.462s0.363-0.191,0.588-0.238c0.224-0.047,0.461-0.07,0.713-0.07c0.159,0,0.292,0.008,0.399,0.021
			s0.212,0.03,0.315,0.049v3.038H167.704z M182.286,91.976c0.461-0.092,0.842-0.245,1.141-0.458l-0.393-1.559
			c-0.215,0.131-0.467,0.238-0.756,0.322s-0.644,0.126-1.063,0.126c-0.448,0-0.843-0.082-1.183-0.246
			c-0.342-0.163-0.626-0.393-0.854-0.688c-0.229-0.294-0.399-0.649-0.511-1.065c-0.112-0.416-0.168-0.877-0.168-1.382
			c0-1.16,0.235-2.016,0.707-2.567c0.471-0.552,1.094-0.828,1.869-0.828c0.42,0,0.776,0.023,1.07,0.07s0.549,0.121,0.764,0.224
			l0.377-1.624c-0.252-0.103-0.571-0.191-0.959-0.266c-0.387-0.075-0.86-0.112-1.42-0.112c-0.523,0-1.046,0.087-1.568,0.259
			c-0.523,0.173-0.996,0.458-1.422,0.854c-0.424,0.396-0.77,0.919-1.035,1.567c-0.266,0.649-0.399,1.454-0.399,2.415
			c0,0.925,0.119,1.711,0.357,2.359c0.237,0.648,0.558,1.176,0.959,1.582s0.865,0.7,1.393,0.882
			c0.527,0.183,1.085,0.273,1.673,0.273C181.35,92.115,181.823,92.068,182.286,91.976z M191.028,91.919h1.918v-9.8h-1.428
			l-3.654,5.292l-0.686,1.357h-0.084l0.14-1.315v-5.334h-1.918v9.8h1.442l3.654-5.39l0.657-1.316h0.07l-0.112,1.274V91.919z
			 M200.828,90.281c-0.289,0.084-0.644,0.126-1.063,0.126c-0.448,0-0.843-0.082-1.184-0.246c-0.341-0.163-0.625-0.393-0.854-0.688
			c-0.229-0.294-0.399-0.649-0.512-1.065c-0.111-0.416-0.168-0.877-0.168-1.382c0-1.16,0.236-2.016,0.707-2.567
			c0.472-0.552,1.095-0.828,1.869-0.828c0.42,0,0.777,0.023,1.071,0.07s0.548,0.121,0.763,0.224l0.379-1.624
			c-0.253-0.103-0.572-0.191-0.959-0.266c-0.389-0.075-0.861-0.112-1.422-0.112c-0.522,0-1.045,0.087-1.568,0.259
			c-0.522,0.173-0.996,0.458-1.42,0.854c-0.426,0.396-0.771,0.919-1.037,1.567c-0.266,0.649-0.398,1.454-0.398,2.415
			c0,0.925,0.119,1.711,0.357,2.359s0.557,1.176,0.959,1.582c0.4,0.406,0.865,0.7,1.393,0.882c0.527,0.183,1.085,0.273,1.673,0.273
			c0.485,0,0.959-0.047,1.421-0.14c0.463-0.092,0.842-0.245,1.141-0.458l-0.392-1.559C201.37,90.09,201.117,90.197,200.828,90.281z
			 M203.097,83.827h2.869v8.092h1.918v-8.092h2.856v-1.708h-7.644V83.827z M214.353,87.817h3.541v-1.708h-3.541v-2.282h3.892v-1.708
			h-5.81v9.8h5.879v-1.708h-3.961V87.817z M225.748,86.571l-0.42,1.147h-0.056l-0.463-1.12l-2.617-4.479h-1.75v9.8h1.819v-5.096
			l-0.28-1.933h0.07l0.616,1.555l2.198,3.668h0.615l2.086-3.654l0.603-1.568h0.084l-0.21,1.946v5.082h1.918v-9.8h-1.736
			L225.748,86.571z M236.444,82.049h-1.414l-3.528,9.87h1.918l0.741-2.17h3.011l0.784,2.17h2.016L236.444,82.049z M234.651,88.209
			l0.715-2.17l0.293-1.554h0.07l0.295,1.54l0.728,2.184H234.651z M78.099,112.271l0.644-0.544l1.134-1.702l-0.994-0.784
			l-2.156,3.017l2.24,2.989l0.994-0.784l-1.218-1.699L78.099,112.271z M75.467,112.271l0.672-0.571l1.218-1.759l-1.106-0.868
			l-2.24,3.213l2.324,3.101l1.106-0.868l-1.302-1.741L75.467,112.271z M81.977,115.919h1.918v-8.092h3.43v8.092h1.918v-9.8h-7.266
			V115.919z M95.263,110.767l0.756-0.531l2.856-4.116H96.69l-2.702,4.144l-0.448,0.196v-4.34h-1.918v9.8h1.918v-4.186h0.504
			l2.898,4.186h2.366l-3.262-4.606L95.263,110.767z M105.006,115.919h1.918v-8.092h3.43v8.092h1.918v-9.8h-7.266V115.919z
			 M120.141,106.574c-0.392-0.238-0.833-0.396-1.323-0.477c-0.49-0.079-0.978-0.119-1.463-0.119c-0.467,0-0.936,0.021-1.407,0.063
			s-0.903,0.101-1.295,0.175v9.702h1.918v-3.374c0.047,0.01,0.124,0.019,0.231,0.028c0.107,0.009,0.217,0.016,0.329,0.021
			s0.219,0.007,0.322,0.007h0.224c0.485,0,0.954-0.061,1.407-0.182c0.453-0.121,0.856-0.317,1.211-0.588
			c0.354-0.271,0.639-0.618,0.854-1.043s0.322-0.945,0.322-1.562c0-0.681-0.124-1.233-0.371-1.658
			C120.852,107.144,120.532,106.812,120.141,106.574z M119.279,110.081c-0.117,0.224-0.273,0.398-0.469,0.525
			c-0.196,0.126-0.418,0.212-0.665,0.259c-0.248,0.047-0.497,0.069-0.749,0.069h-0.175c-0.08,0-0.161-0.002-0.245-0.007
			c-0.084-0.004-0.164-0.012-0.238-0.021c-0.075-0.01-0.131-0.019-0.168-0.028v-3.178c0.103-0.019,0.238-0.035,0.406-0.049
			c0.168-0.015,0.345-0.021,0.532-0.021c0.243,0,0.481,0.023,0.714,0.07c0.233,0.047,0.441,0.131,0.623,0.252
			c0.182,0.121,0.329,0.282,0.441,0.482c0.112,0.201,0.168,0.455,0.168,0.764C119.455,109.563,119.396,109.857,119.279,110.081z
			 M125.908,111.411l-0.686,1.357h-0.084l0.14-1.315v-5.334h-1.918v9.8h1.442l3.654-5.39l0.658-1.316h0.07l-0.112,1.274v5.432h1.918
			v-9.8h-1.428L125.908,111.411z M138.886,110.109h-3.584v-3.99h-1.918v9.8h1.918v-4.102h3.584v4.102h1.918v-9.8h-1.918V110.109z
			 M142.512,107.827h2.87v8.092h1.918v-8.092h2.855v-1.708h-7.644V107.827z M151.85,115.919h1.918v-8.092h3.431v8.092h1.918v-9.8
			h-7.267V115.919z M166.983,106.574c-0.392-0.238-0.833-0.396-1.322-0.477c-0.49-0.079-0.979-0.119-1.463-0.119
			c-0.467,0-0.937,0.021-1.408,0.063c-0.471,0.042-0.902,0.101-1.295,0.175v9.702h1.918v-3.374c0.047,0.01,0.124,0.019,0.231,0.028
			c0.107,0.009,0.218,0.016,0.329,0.021s0.219,0.007,0.322,0.007h0.224c0.485,0,0.954-0.061,1.407-0.182s0.855-0.317,1.211-0.588
			c0.354-0.271,0.639-0.618,0.854-1.043s0.322-0.945,0.322-1.562c0-0.681-0.123-1.233-0.371-1.658
			C167.695,107.144,167.376,106.812,166.983,106.574z M166.122,110.081c-0.116,0.224-0.272,0.398-0.469,0.525
			c-0.195,0.126-0.418,0.212-0.664,0.259c-0.248,0.047-0.498,0.069-0.75,0.069h-0.175c-0.079,0-0.161-0.002-0.245-0.007
			c-0.084-0.004-0.163-0.012-0.238-0.021c-0.074-0.01-0.131-0.019-0.168-0.028v-3.178c0.104-0.019,0.238-0.035,0.406-0.049
			c0.168-0.015,0.346-0.021,0.532-0.021c0.243,0,0.48,0.023,0.714,0.07s0.441,0.131,0.623,0.252s0.329,0.282,0.441,0.482
			c0.111,0.201,0.168,0.455,0.168,0.764C166.298,109.563,166.239,109.857,166.122,110.081z M177.036,107.323
			c-0.346-0.448-0.779-0.794-1.303-1.036c-0.522-0.243-1.134-0.364-1.834-0.364c-1.334,0-2.361,0.441-3.08,1.323
			s-1.078,2.14-1.078,3.772c0,0.766,0.084,1.461,0.252,2.086c0.168,0.626,0.423,1.162,0.764,1.61
			c0.34,0.448,0.771,0.794,1.295,1.036c0.522,0.242,1.139,0.364,1.848,0.364c1.326,0,2.35-0.441,3.073-1.323s1.085-2.14,1.085-3.773
			c0-0.765-0.084-1.46-0.252-2.086C177.638,108.308,177.381,107.771,177.036,107.323z M175.481,113.609
			c-0.373,0.531-0.9,0.798-1.582,0.798c-0.373,0-0.695-0.084-0.966-0.252s-0.492-0.401-0.665-0.7s-0.301-0.655-0.385-1.071
			c-0.084-0.415-0.126-0.87-0.126-1.365c0-1.166,0.187-2.022,0.56-2.568s0.9-0.819,1.582-0.819c0.393,0,0.724,0.087,0.994,0.259
			c0.271,0.173,0.49,0.413,0.658,0.722c0.168,0.308,0.291,0.667,0.371,1.077c0.079,0.411,0.119,0.854,0.119,1.33
			C176.042,112.214,175.854,113.077,175.481,113.609z M189.265,107.946c-0.285-0.332-0.618-0.579-1.001-0.742
			s-0.803-0.245-1.26-0.245c-0.14,0-0.325,0.007-0.554,0.021c-0.229,0.015-0.432,0.045-0.608,0.092v-1.232h-1.876v1.19
			c-0.112-0.028-0.257-0.047-0.434-0.057c-0.178-0.009-0.327-0.014-0.448-0.014c-0.514,0-0.98,0.094-1.4,0.28
			s-0.782,0.455-1.085,0.805s-0.537,0.774-0.699,1.274c-0.164,0.499-0.246,1.066-0.246,1.7c0,0.673,0.082,1.253,0.246,1.743
			c0.162,0.49,0.387,0.896,0.672,1.218c0.284,0.322,0.617,0.561,1,0.715c0.383,0.153,0.799,0.23,1.246,0.23
			c0.215,0,0.416-0.005,0.603-0.014c0.187-0.01,0.368-0.028,0.546-0.057v1.345h1.876v-1.372c0.14,0.037,0.296,0.063,0.469,0.077
			c0.173,0.014,0.334,0.021,0.483,0.021c0.467,0,0.902-0.086,1.309-0.259s0.764-0.43,1.071-0.771c0.308-0.34,0.55-0.763,0.728-1.267
			s0.262-1.087,0.252-1.75c0.01-0.644-0.064-1.211-0.224-1.701S189.55,108.277,189.265,107.946z M184.036,113.314
			c-0.104,0.038-0.231,0.059-0.385,0.063c-0.154,0.005-0.27,0.007-0.344,0.007c-0.523,0-0.943-0.206-1.26-0.619
			c-0.317-0.413-0.477-1-0.477-1.761c0-0.872,0.173-1.509,0.519-1.907c0.345-0.399,0.774-0.599,1.288-0.599
			c0.103,0,0.215,0.002,0.336,0.007s0.229,0.017,0.322,0.035V113.314z M188.11,112.013c-0.094,0.309-0.225,0.565-0.393,0.771
			s-0.364,0.354-0.588,0.448c-0.225,0.093-0.467,0.145-0.729,0.153c-0.103-0.009-0.212-0.014-0.328-0.014
			c-0.117,0-0.217-0.01-0.302-0.028v-4.76c0.112-0.028,0.247-0.047,0.406-0.056c0.159-0.01,0.284-0.019,0.378-0.028
			c0.532,0.01,0.947,0.224,1.246,0.644s0.443,1.004,0.434,1.75C188.245,111.332,188.202,111.705,188.11,112.013z M194.214,109.941
			l1.302,1.73l0.672,0.502l-0.672,0.576l-1.218,1.769l1.105,0.868l2.24-3.227l-2.324-3.087L194.214,109.941z M192.673,109.213
			l-0.979,0.784l1.218,1.688l0.631,0.488l-0.631,0.548l-1.147,1.713l1.008,0.784l2.142-3.031L192.673,109.213z"/>
	</g>
</g>
</svg>
