<?xml version="1.0" encoding="utf-8"?>
<!-- Generator: Adobe Illustrator 15.1.0, SVG Export Plug-In . SVG Version: 6.00 Build 0)  -->
<!DOCTYPE svg PUBLIC "-//W3C//DTD SVG 1.1//EN" "http://www.w3.org/Graphics/SVG/1.1/DTD/svg11.dtd">
<svg version="1.1" id="Layer_1" xmlns="http://www.w3.org/2000/svg" xmlns:xlink="http://www.w3.org/1999/xlink" x="0px" y="0px"
	 width="32px" height="32px" viewBox="0 0 32 32" enable-background="new 0 0 32 32" xml:space="preserve">
<g>
	<g>
		<path fill-rule="evenodd" clip-rule="evenodd" fill="#7F8C8D" d="M16,0C7.163,0,0,7.163,0,16c0,8.836,7.163,16,16,16
			c8.836,0,16-7.164,16-16C32,7.163,24.836,0,16,0z M16.445,8.233L19.6,9.079l1.803,6.726l-2.009,2.009l-1.803-6.726l-3.154-0.846
			L16.445,8.233z M9.412,19.268l-0.846-3.154l4.924-4.925l2.744,0.735l-4.924,4.925l0.846,3.154L9.412,19.268z M20.234,22.433
			l-6.726-1.802l-0.735-2.744l6.727,1.802l2.309-2.309l0.735,2.743L20.234,22.433z"/>
	</g>
</g>
</svg>
