<?xml version="1.0" encoding="utf-8"?>
<!-- Generator: Adobe Illustrator 15.1.0, SVG Export Plug-In . SVG Version: 6.00 Build 0)  -->
<!DOCTYPE svg PUBLIC "-//W3C//DTD SVG 1.1//EN" "http://www.w3.org/Graphics/SVG/1.1/DTD/svg11.dtd">
<svg version="1.1" id="Layer_1" xmlns="http://www.w3.org/2000/svg" xmlns:xlink="http://www.w3.org/1999/xlink" x="0px" y="0px"
	 width="180.007px" height="29.791px" viewBox="0 0 180.007 29.791" enable-background="new 0 0 180.007 29.791"
	 xml:space="preserve">
<g>
	<g>
		<path fill="#FFFFFF" d="M35.942,25.271h3.409V13.339h5.336v11.932h3.409V10.746H35.942V25.271z M62.473,10.746h-4.224
			l-3.187,5.706h-1.111v-5.706h-3.409v14.525h3.409v-5.855h1.556l3.261,5.855h4.076l-4.891-7.93L62.473,10.746z M68.92,25.271h3.409
			V13.339h5.336v11.932h3.409V10.746H68.92V25.271z M89.226,14.228c-0.52,0-0.964,0.148-1.408,0.371
			c-0.445,0.223-0.816,0.593-1.112,1.037l-0.148-1.186h-3.187v15.191l3.409-0.518v-4.817c0.296,0.37,0.667,0.667,1.038,0.889
			c0.444,0.224,0.889,0.297,1.408,0.297c1.333,0,2.371-0.519,3.111-1.482c0.742-0.963,1.112-2.297,1.112-3.927v-0.223
			c0-1.705-0.37-3.039-1.112-4.076C91.597,14.748,90.559,14.228,89.226,14.228z M90.115,20.083c0,0.889-0.148,1.556-0.371,2.074
			c-0.222,0.52-0.666,0.741-1.26,0.741c-0.37,0-0.666,0-0.963-0.148s-0.519-0.296-0.667-0.519v-4.521
			c0.148-0.222,0.296-0.444,0.593-0.593s0.594-0.223,0.964-0.223c0.593,0,0.963,0.297,1.259,0.815
			c0.223,0.593,0.371,1.334,0.371,2.224h0.074V20.083z M98.637,20.378h-0.073v-5.928h-3.336v10.82h3.336l2.964-5.93h0.073v5.93
			h3.335v-10.82h-3.335L98.637,20.378z M113.458,18.674h-2.965v-4.224h-3.408v10.82h3.408v-4.002h2.965v4.002h3.335v-10.82h-3.335
			V18.674z M118.127,17.044h3.335v8.227h3.409v-8.227h2.89l0.52-2.594h-10.153V17.044z M129.984,25.271h2.445V12.672h6.523v12.599
			h2.445V10.746h-11.414V25.271z M149.328,14.228c-0.668,0-1.188,0.074-1.705,0.371c-0.519,0.297-0.889,0.667-1.26,1.186
			l-0.223-1.334h-2.075v15.34l2.445-0.444v-5.039c0.297,0.444,0.741,0.741,1.187,0.964c0.443,0.222,1.037,0.295,1.631,0.295
			c1.333,0,2.37-0.518,3.111-1.481c0.741-1.037,1.111-2.297,1.111-3.853v-0.297c0-1.705-0.37-3.113-1.111-4.15
			S150.661,14.228,149.328,14.228z M151.179,20.232c0,0.963-0.148,1.777-0.594,2.37c-0.369,0.594-1.036,0.89-1.852,0.89
			c-0.519,0-0.963-0.074-1.334-0.296c-0.296-0.224-0.593-0.519-0.814-0.89v-4.892c0.148-0.37,0.443-0.667,0.814-0.889
			c0.297-0.223,0.74-0.297,1.26-0.297c0.814,0,1.408,0.371,1.853,1.038c0.37,0.741,0.593,1.63,0.593,2.741h0.074V20.232z
			 M160.073,14.228c-1.557,0-2.742,0.52-3.632,1.557c-0.889,1.037-1.334,2.371-1.334,4.002v0.222c0,1.631,0.445,2.964,1.334,4.002
			c0.89,1.038,2.075,1.556,3.632,1.556c1.556,0,2.741-0.518,3.631-1.556s1.333-2.371,1.333-4.002v-0.222
			c0-1.631-0.443-2.965-1.333-4.002S161.628,14.228,160.073,14.228z M162.667,20.008c0,1.038-0.224,1.927-0.667,2.594
			c-0.445,0.667-1.111,0.964-1.927,0.964c-0.89,0-1.482-0.297-1.927-0.964c-0.371-0.667-0.594-1.556-0.594-2.594v-0.222
			c0-0.964,0.148-1.854,0.594-2.52c0.444-0.667,1.111-1.038,1.927-1.038c0.889,0,1.481,0.371,1.927,1.038
			c0.443,0.666,0.667,1.482,0.667,2.52V20.008z M178.97,15.859c-0.741-1.037-1.705-1.557-2.965-1.557c-0.297,0-0.594,0-0.815,0.074
			s-0.444,0.148-0.667,0.223V9.782l-2.445,0.445v4.298c-0.223-0.074-0.444-0.148-0.667-0.223c-0.222-0.074-0.519-0.074-0.741-0.074
			c-1.334,0-2.297,0.52-2.964,1.557c-0.667,1.111-1.038,2.52-1.038,4.224h0.074v0.297c0,1.63,0.371,2.891,1.037,3.854
			c0.668,0.964,1.631,1.482,2.891,1.482c0.297,0,0.52,0,0.741-0.075c0.223-0.073,0.444-0.146,0.667-0.222v4.446l2.445-0.444v-4.075
			c0.223,0.073,0.519,0.148,0.742,0.222c0.222,0.073,0.518,0.073,0.814,0.073c1.26,0,2.223-0.443,2.891-1.407
			c0.666-0.963,1.037-2.298,1.037-3.854v-0.222C180.007,18.304,179.636,16.896,178.97,15.859z M172.003,23.492
			c-0.148,0-0.223,0.074-0.37,0.074c-0.148,0-0.297,0-0.444,0c-0.741,0-1.26-0.297-1.631-0.889c-0.371-0.594-0.52-1.408-0.52-2.445
			h0.074v-0.148c0-1.112,0.148-2.002,0.52-2.742c0.297-0.668,0.889-1.038,1.631-1.038c0.147,0,0.222,0,0.37,0
			c0.147,0,0.222,0.074,0.37,0.074V23.492z M177.414,20.008v0.148c0,1.038-0.148,1.853-0.52,2.445
			c-0.296,0.594-0.889,0.89-1.629,0.89c-0.148,0-0.297,0-0.445,0s-0.297,0-0.371-0.074v-7.114c0.074,0,0.223-0.074,0.371-0.074
			s0.297,0,0.445,0c0.814,0,1.333,0.297,1.703,1.038c0.371,0.741,0.52,1.63,0.52,2.741H177.414z M29.272,5.854l-3.039-4.446
			c-0.074-0.148-0.148-0.222-0.296-0.371C25.345,0.371,24.381,0.074,23.492,0c-0.889,0-1.853,0.222-2.52,0.667
			c-0.148,0.148-0.297,0.222-0.445,0.371L9.708,11.708c-0.815,0.815-1.186,1.927-1.111,3.039c0.074,1.111,0.519,2.223,1.333,2.964
			l4.15,3.705c1.111,0.89,0.815,1.556-0.667,2.964c4.446-0.296,5.707-2.964,3.631-4.816l-4.891-4.298
			c-0.148-0.148-0.222-0.37-0.222-0.593s0.074-0.445,0.148-0.52L22.825,3.483c0.074-0.074,0.296-0.074,0.444-0.074
			c0.074,0,0.223,0,0.223,0l2.964,4.372c0.222,0.297,0.296,0.593,0.296,0.89c0.074,0.593,0,0.963-0.074,1.038L18.23,24.159
			c-0.148,0.222-0.222,0.37-0.296,0.519c-0.148,0.371-0.222,0.667-0.296,0.667H3.706c-0.148,0-0.222,0-0.296-0.073
			c0-0.075-0.074-0.223-0.074-0.297V8.299c0-0.222,0.148-0.37,0.371-0.37h6.077l3.483-3.335h-9.56C1.705,4.594,0,6.225,0,8.299
			v16.675c0,0.963,0.445,1.927,1.112,2.594s1.556,1.111,2.594,1.111h13.932c1.927,0,2.594-1.186,3.261-2.445
			c0.074-0.223,0.148-0.371,0.222-0.444l8.448-14.452c0.223-0.37,0.667-1.629,0.593-2.89C30.088,7.633,29.866,6.669,29.272,5.854z"
			/>
	</g>
</g>
</svg>
