<?xml version="1.0" encoding="utf-8"?>
<!-- Generator: Adobe Illustrator 15.1.0, SVG Export Plug-In . SVG Version: 6.00 Build 0)  -->
<!DOCTYPE svg PUBLIC "-//W3C//DTD SVG 1.1//EN" "http://www.w3.org/Graphics/SVG/1.1/DTD/svg11.dtd">
<svg version="1.1" id="Layer_1" xmlns="http://www.w3.org/2000/svg" xmlns:xlink="http://www.w3.org/1999/xlink" x="0px" y="0px"
	 width="14px" height="13.983px" viewBox="0 0 14 13.983" enable-background="new 0 0 14 13.983" xml:space="preserve">
<g>
	<g>
		<path fill-rule="evenodd" clip-rule="evenodd" fill="#FFFF99" d="M13,0H1C0.447,0,0,0.447,0,1v8c0,0.552,0.447,1,1,1h1h1
			c0.552,0,1-0.448,1-1c0-0.553-0.448-1-1-1H2V2h10v6H8v0.012C7.691,8.006,7.384,8.125,7.184,8.391l-3.014,3.99
			c-0.333,0.44-0.246,1.067,0.195,1.4c0.44,0.333,1.067,0.245,1.4-0.195L8.475,10H13c0.552,0,1-0.448,1-1V1C14,0.447,13.552,0,13,0z
			"/>
	</g>
</g>
</svg>
