<?xml version="1.0" encoding="utf-8"?>
<!-- Generator: Adobe Illustrator 15.1.0, SVG Export Plug-In . SVG Version: 6.00 Build 0)  -->
<!DOCTYPE svg PUBLIC "-//W3C//DTD SVG 1.1//EN" "http://www.w3.org/Graphics/SVG/1.1/DTD/svg11.dtd">
<svg version="1.1" id="Layer_1" xmlns="http://www.w3.org/2000/svg" xmlns:xlink="http://www.w3.org/1999/xlink" x="0px" y="0px"
	 width="16px" height="15.983px" viewBox="0 0 16 15.983" enable-background="new 0 0 16 15.983" xml:space="preserve">
<g>
	<g>
		<path fill-rule="evenodd" clip-rule="evenodd" fill="#FFFF99" d="M7,6c0-0.553-0.447-1-1-1S5,5.447,5,6s0.447,1,1,1S7,6.553,7,6z
			 M15,0H1C0.447,0,0,0.447,0,1v10c0,0.553,0.447,1,1,1h1h1c0.552,0,1-0.447,1-1s-0.448-1-1-1H2V2h12v8H8v0.012
			c-0.309-0.006-0.616,0.113-0.816,0.379l-3.014,3.99c-0.333,0.441-0.246,1.068,0.195,1.4c0.44,0.333,1.067,0.246,1.4-0.195
			L8.474,12H15c0.552,0,1-0.447,1-1V1C16,0.447,15.552,0,15,0z M11,6c0-0.553-0.448-1-1-1C9.447,5,9,5.447,9,6s0.447,1,1,1
			C10.552,7,11,6.553,11,6z"/>
	</g>
</g>
</svg>
