<?xml version="1.0" encoding="utf-8"?>
<!-- Generator: Adobe Illustrator 15.1.0, SVG Export Plug-In . SVG Version: 6.00 Build 0)  -->
<!DOCTYPE svg PUBLIC "-//W3C//DTD SVG 1.1//EN" "http://www.w3.org/Graphics/SVG/1.1/DTD/svg11.dtd">
<svg version="1.1" id="Layer_1" xmlns="http://www.w3.org/2000/svg" xmlns:xlink="http://www.w3.org/1999/xlink" x="0px" y="0px"
	 width="24px" height="24px" viewBox="0 0 24 24" enable-background="new 0 0 24 24" xml:space="preserve">
<g>
	<g>
		<path fill-rule="evenodd" clip-rule="evenodd" fill="#C0392B" d="M12,0C5.373,0,0,5.373,0,12s5.373,12,12,12s12-5.373,12-12
			S18.627,0,12,0z M12,21.998c-5.523,0-10-4.477-10-9.999c0-5.523,4.477-10,10-10c5.522,0,10,4.477,10,10
			C22,17.521,17.522,21.998,12,21.998z M15,10.998H9c-0.552,0-1,0.448-1,1.001c0,0.552,0.448,1,1,1h6c0.552,0,1-0.448,1-1
			C16,11.446,15.552,10.998,15,10.998z"/>
	</g>
</g>
</svg>
