<?xml version="1.0" encoding="utf-8"?>
<!-- Generator: Adobe Illustrator 15.1.0, SVG Export Plug-In . SVG Version: 6.00 Build 0)  -->
<!DOCTYPE svg PUBLIC "-//W3C//DTD SVG 1.1//EN" "http://www.w3.org/Graphics/SVG/1.1/DTD/svg11.dtd">
<svg version="1.1" id="Layer_1" xmlns="http://www.w3.org/2000/svg" xmlns:xlink="http://www.w3.org/1999/xlink" x="0px" y="0px"
	 width="15px" height="18px" viewBox="0 0 15 18" enable-background="new 0 0 15 18" xml:space="preserve">
<g>
	<g>
		<path fill-rule="evenodd" clip-rule="evenodd" fill="#FFFF99" d="M14,0h-4H9H4C3.447,0,3,0.447,3,1s0.447,1,1,1h5h1h3v14H5v-1
			c0-0.553-0.448-1-1-1c-0.553,0-1,0.447-1,1v1v1c0,0.553,0.447,1,1,1h10c0.552,0,1-0.447,1-1V1C15,0.447,14.552,0,14,0z M3,11
			c0,0.553,0.447,1,1,1c0.552,0,1-0.447,1-1V9h2c0.553,0,1-0.447,1-1S7.553,7,7,7H5V5c0-0.553-0.448-1-1-1C3.447,4,3,4.447,3,5v2H1
			C0.447,7,0,7.447,0,8s0.447,1,1,1h2V11z"/>
	</g>
</g>
</svg>
