<?xml version="1.0" encoding="utf-8"?>
<!-- Generator: Adobe Illustrator 15.1.0, SVG Export Plug-In . SVG Version: 6.00 Build 0)  -->
<!DOCTYPE svg PUBLIC "-//W3C//DTD SVG 1.1//EN" "http://www.w3.org/Graphics/SVG/1.1/DTD/svg11.dtd">
<svg version="1.1" id="Layer_1" xmlns="http://www.w3.org/2000/svg" xmlns:xlink="http://www.w3.org/1999/xlink" x="0px" y="0px"
	 width="20px" height="20px" viewBox="0 0 20 20" enable-background="new 0 0 20 20" xml:space="preserve">
<g>
	<g>
		<path fill-rule="evenodd" clip-rule="evenodd" fill="#2ECC71" d="M10,0C4.477,0,0,4.478,0,10.001C0,15.523,4.477,20,10,20
			c5.522,0,10-4.477,10-9.999C20,4.478,15.522,0,10,0z M13,11.001h-2v2c0,0.553-0.448,1-1,1c-0.553,0-1-0.447-1-1v-2H7
			c-0.553,0-1-0.447-1-1S6.447,9,7,9h2V7.001c0-0.553,0.447-1,1-1c0.552,0,1,0.447,1,1V9h2c0.552,0,1,0.448,1,1.001
			S13.552,11.001,13,11.001z"/>
	</g>
</g>
</svg>
