<?xml version="1.0" encoding="utf-8"?>
<!-- Generator: Adobe Illustrator 15.1.0, SVG Export Plug-In . SVG Version: 6.00 Build 0)  -->
<!DOCTYPE svg PUBLIC "-//W3C//DTD SVG 1.1//EN" "http://www.w3.org/Graphics/SVG/1.1/DTD/svg11.dtd">
<svg version="1.1" id="Layer_1" xmlns="http://www.w3.org/2000/svg" xmlns:xlink="http://www.w3.org/1999/xlink" x="0px" y="0px"
	 width="18px" height="18px" viewBox="0 0 18 18" enable-background="new 0 0 18 18" xml:space="preserve">
<g>
	<g>
		<path fill-rule="evenodd" clip-rule="evenodd" fill="#D7DBDD" d="M9,0C4.029,0,0,4.029,0,9s4.029,9,9,9s9-4.029,9-9S13.971,0,9,0z
			 M10.072,13H7.886v-1.929h2.186V13z M11.855,8.122c-0.168,0.283-0.512,0.629-1.031,1.037c-0.362,0.286-0.59,0.517-0.685,0.69
			c-0.095,0.173-0.143,0.399-0.143,0.68H7.956v-0.205c0-0.347,0.04-0.629,0.118-0.846c0.079-0.217,0.196-0.414,0.352-0.594
			c0.156-0.179,0.505-0.494,1.05-0.945c0.29-0.236,0.435-0.452,0.435-0.649S9.853,6.94,9.737,6.831
			C9.62,6.722,9.444,6.667,9.208,6.667c-0.254,0-0.464,0.084-0.631,0.252C8.41,7.088,8.304,7.381,8.257,7.8L6.173,7.542
			c0.072-0.766,0.35-1.383,0.835-1.851c0.485-0.467,1.229-0.7,2.232-0.7c0.781,0,1.411,0.163,1.891,0.488
			c0.652,0.44,0.978,1.028,0.978,1.763C12.108,7.546,12.024,7.84,11.855,8.122z"/>
	</g>
</g>
</svg>
