<?xml version="1.0" encoding="utf-8"?>
<!-- Generator: Adobe Illustrator 15.1.0, SVG Export Plug-In . SVG Version: 6.00 Build 0)  -->
<!DOCTYPE svg PUBLIC "-//W3C//DTD SVG 1.1//EN" "http://www.w3.org/Graphics/SVG/1.1/DTD/svg11.dtd">
<svg version="1.1" id="Layer_1" xmlns="http://www.w3.org/2000/svg" xmlns:xlink="http://www.w3.org/1999/xlink" x="0px" y="0px"
	 width="13px" height="12.984px" viewBox="0 0 13 12.984" enable-background="new 0 0 13 12.984" xml:space="preserve">
<g>
	<g>
		<path fill-rule="evenodd" clip-rule="evenodd" fill="#C0392B" d="M5.518,0C2.471,0,0,2.464,0,5.502
			c0,3.039,2.471,5.502,5.518,5.502c3.048,0,5.518-2.463,5.518-5.502C11.036,2.464,8.566,0,5.518,0z M5.477,8.932
			c-1.951,0-3.533-1.554-3.533-3.47c0-1.917,1.582-3.471,3.533-3.471S9.01,3.544,9.01,5.461C9.01,7.378,7.428,8.932,5.477,8.932z
			 M12.708,11.278l-0.657-0.657c-0.391-0.39-1.023-0.39-1.414,0c-0.391,0.391-0.391,1.024,0,1.415l0.657,0.657
			c0.391,0.39,1.023,0.39,1.414,0C13.098,12.302,13.098,11.668,12.708,11.278z"/>
	</g>
</g>
</svg>
