<?xml version="1.0" encoding="utf-8"?>
<!-- Generator: Adobe Illustrator 15.1.0, SVG Export Plug-In . SVG Version: 6.00 Build 0)  -->
<!DOCTYPE svg PUBLIC "-//W3C//DTD SVG 1.1//EN" "http://www.w3.org/Graphics/SVG/1.1/DTD/svg11.dtd">
<svg version="1.1" id="Layer_1" xmlns="http://www.w3.org/2000/svg" xmlns:xlink="http://www.w3.org/1999/xlink" x="0px" y="0px"
	 width="7.032px" height="7.063px" viewBox="0 0 7.032 7.063" enable-background="new 0 0 7.032 7.063" xml:space="preserve">
<g>
	<g>
		<path fill-rule="evenodd" clip-rule="evenodd" fill="#333333" d="M4.465,3.532L6.836,1.15c0.262-0.263,0.262-0.689,0-0.953
			s-0.687-0.263-0.948,0L3.517,2.579L1.145,0.197c-0.262-0.263-0.687-0.263-0.948,0c-0.262,0.263-0.262,0.689,0,0.953l2.371,2.382
			L0.197,5.913c-0.262,0.264-0.262,0.689,0,0.953c0.262,0.263,0.687,0.263,0.948,0l2.372-2.382l2.371,2.382
			c0.262,0.263,0.687,0.263,0.948,0c0.262-0.264,0.262-0.689,0-0.953L4.465,3.532z"/>
	</g>
</g>
</svg>
