<?xml version="1.0" encoding="utf-8"?>
<!-- Generator: Adobe Illustrator 15.1.0, SVG Export Plug-In . SVG Version: 6.00 Build 0)  -->
<!DOCTYPE svg PUBLIC "-//W3C//DTD SVG 1.1//EN" "http://www.w3.org/Graphics/SVG/1.1/DTD/svg11.dtd">
<svg version="1.1" id="Layer_1" xmlns="http://www.w3.org/2000/svg" xmlns:xlink="http://www.w3.org/1999/xlink" x="0px" y="0px"
	 width="20px" height="19px" viewBox="0 0 20 19" enable-background="new 0 0 20 19" xml:space="preserve">
<g>
	<g>
		<path fill-rule="evenodd" clip-rule="evenodd" fill="#C0392B" d="M19.825,15.027L19.844,15l-0.066-0.122
			c-0.083-0.208-0.188-0.403-0.314-0.584L12.844,2h-0.028C12.403,0.837,11.304,0,10,0C8.696,0,7.597,0.837,7.184,2H7.157
			L0.539,14.291c-0.127,0.184-0.234,0.381-0.318,0.591L0.157,15l0.019,0.026C0.07,15.333,0,15.657,0,16c0,1.657,1.343,3,3,3h0h14
			c1.656,0,3-1.343,3-3C20,15.658,19.931,15.334,19.825,15.027z M10,15c-0.553,0-1-0.448-1-1c0-0.553,0.448-1,1-1
			c0.552,0,1,0.447,1,1C11,14.552,10.552,15,10,15z M11,11c0,0.552-0.448,1-1,1c-0.553,0-1-0.448-1-1V7c0-0.552,0.448-1,1-1
			c0.552,0,1,0.448,1,1V11z"/>
	</g>
</g>
</svg>
